<svg xmlns="http://www.w3.org/2000/svg" width="2160.000000pt" height="2160.000000pt" viewBox="0 0 2160.000000 2160.000000" preserveAspectRatio="xMidYMid meet"><g transform="translate(0.000000,2160.000000) scale(0.100000,-0.100000)" fill="#000000" stroke="none"><path d="M1940 21589 c-142 -15 -298 -49 -450 -99 -334 -109 -605 -275 -855 -525 -359 -358 -574 -814 -625 -1324 -14 -144 -14 -17538 0 -17682 32 -322 141 -651 304 -918 178 -293 434 -549 727 -727 267 -163 596 -272 918 -304 147 -14 17536 -14 17687 1 678 66 1284 446 1640 1030 168 274 273 595 304 924 14 153 14 17532 0 17676 -16 161 -48 311 -100 469 -109 334 -275 604 -525 855 -354 357 -817 576 -1319 624 -136 14 -17577 13 -17706 0z m11283 -1931 c6 -251 24 -367 102 -666 44 -167 109 -348 189 -522 423 -926 1259 -1620 2245 -1865 231 -57 407 -82 712 -101 l96 -6 6 -381 c4 -210 7 -750 7 -1199 l0 -818 -122 0 c-68 0 -188 5 -268 10 -1016 70 -1968 392 -2812 953 l-158 104 -3 -2631 c-4 -2838 0 -2662 -53 -2986 -291 -1810 -1683 -3268 -3479 -3643 -316 -67 -559 -91 -915 -91 -298 0 -420 9 -682 49 -918 141 -1748 557 -2421 1214 -770 753 -1218 1690 -1329 2781 -16 161 -16 639 0 800 52 505 163 940 354 1380 503 1156 1502 2061 2703 2450 505 163 1073 239 1578 212 112 -7 250 -17 305 -23 l102 -12 0 -1228 c0 -676 -1 -1229 -3 -1229 -1 0 -45 11 -97 24 -202 51 -282 60 -515 60 -265 0 -408 -21 -630 -93 -649 -209 -1160 -746 -1334 -1402 -55 -206 -65 -292 -65 -539 1 -185 4 -246 22 -340 120 -655 528 -1193 1127 -1486 315 -153 680 -223 1024 -195 1004 81 1781 840 1881 1840 7 69 10 1678 10 4947 l0 4844 1209 0 1209 0 5 -212z m-6787 -15200 c-29 -90 -72 -227 -96 -305 l-45 -143 -287 0 -288 0 0 -1135 0 -1135 -350 0 -350 0 0 1140 0 1140 -350 0 -350 0 0 300 0 300 1084 0 1084 0 -52 -162z m677 128 c71 -34 139 -110 167 -184 30 -79 25 -195 -12 -267 -49 -93 -125 -155 -227 -181 -118 -30 -246 9 -329 100 -167 182 -96 465 138 550 70 25 192 17 263 -18z m1167 -631 c0 -366 3 -665 7 -665 5 0 159 151 343 335 l335 335 414 -2 414 -3 -426 -415 c-235 -228 -427 -418 -427 -423 0 -4 214 -317 475 -695 l476 -687 -363 -3 c-281 -2 -365 1 -374 10 -7 7 -150 211 -320 453 -169 242 -315 450 -325 462 l-17 23 -106 -97 -106 -96 0 -374 0 -373 -340 0 -340 0 0 1440 0 1440 340 0 340 0 0 -665z m3935 638 c-3 -16 -45 -152 -94 -303 l-88 -275 -286 -3 -287 -2 0 -1135 0 -1135 -350 0 -350 0 0 1140 0 1140 -350 0 -350 0 0 300 0 300 1081 0 1081 0 -7 -27z m3455 -639 l0 -666 341 336 341 336 416 0 415 0 -244 -237 c-134 -130 -328 -320 -432 -422 l-187 -186 73 -105 c41 -58 256 -369 480 -692 l406 -588 -367 0 -367 0 -334 475 -333 476 -46 -42 c-26 -23 -73 -67 -104 -96 l-58 -54 -2 -372 -3 -372 -342 -3 -343 -2 0 1440 0 1440 345 0 345 0 0 -666z m-2133 125 c388 -52 732 -293 907 -635 127 -251 161 -534 97 -816 -87 -381 -406 -721 -789 -842 -140 -44 -237 -56 -451 -56 -227 0 -350 15 -483 60 -654 219 -984 920 -733 1556 157 395 536 683 965 733 109 12 396 13 487 0z m-6237 -1359 l0 -980 -340 0 -340 0 0 980 0 980 340 0 340 0 0 -980z"></path><path d="M13238 3465 c-104 -26 -187 -74 -269 -155 -124 -123 -175 -256 -167 -430 11 -197 109 -359 280 -463 136 -82 316 -103 468 -56 182 58 337 221 385 405 19 73 19 212 0 284 -48 179 -184 329 -360 396 -88 33 -247 42 -337 19z"></path></g></svg>